<?xml version="1.0" encoding="UTF-8" standalone="no"?>
<!DOCTYPE svg PUBLIC "-//W3C//DTD SVG 1.1//EN" "http://www.w3.org/Graphics/SVG/1.1/DTD/svg11.dtd">
<svg width="100%" height="100%" viewBox="0 0 500 500" version="1.1" xmlns="http://www.w3.org/2000/svg" xmlns:xlink="http://www.w3.org/1999/xlink" xml:space="preserve" xmlns:serif="http://www.serif.com/" style="fill-rule:evenodd;clip-rule:evenodd;stroke-linejoin:round;stroke-miterlimit:2;">
    <g id="WebIcon" transform="matrix(0.62757,0,0,0.62757,-1.02796,-1.02796)">
        <g id="MAIN">
            <g transform="matrix(0.9725,0,0,0.9725,11,11)">
                <path d="M400,0C620.766,0 800,179.234 800,400C800,620.766 620.766,800 400,800C179.234,800 0,620.766 0,400C0,179.234 179.234,0 400,0ZM400,30.848C603.74,30.848 769.152,196.26 769.152,400C769.152,603.74 603.74,769.152 400,769.152C196.26,769.152 30.848,603.74 30.848,400C30.848,196.26 196.26,30.848 400,30.848Z" style="fill:white;"/>
            </g>
            <g transform="matrix(1.11522,0,0,1.11522,-46.0881,-98.5874)">
                <g transform="matrix(1.70955,0,0,0.891493,-267.58,70.6134)">
                    <path d="M423.02,477.603L390.5,464.527L350.112,467.756L319.816,572.444L280.563,572.444L392.478,111.483L500.437,572.444L460.101,572.444L423.02,477.603ZM446.987,478.609L391.892,258.114L346.761,447.428C346.761,447.428 370.044,422.158 403.613,433.347C431.937,442.787 446.987,478.609 446.987,478.609Z" style="fill:white;fill-rule:nonzero;"/>
                </g>
                <g transform="matrix(1,0,0,1,-124,0.15067)">
                    <path d="M612.454,499.981C610.919,498.304 582.609,490.941 565.247,488.172C518.695,480.747 453.008,477.06 454.29,483.375C447.479,488.241 441.197,493.807 435.546,499.981C427.151,497.189 418.541,495.495 409.714,494.897C407.35,498.037 405.117,501.273 403.019,504.597C406.708,512.638 411.346,520.088 416.932,526.947C413.163,534.42 410.187,542.268 408.052,550.361C399.322,551.791 390.91,554.292 382.817,557.864C382.183,561.743 381.709,565.647 381.397,569.564C388.4,574.97 395.968,579.411 404.103,582.889C404.239,591.258 405.25,599.59 407.121,607.748C400.055,613.071 393.769,619.194 388.264,626.119C389.505,629.848 390.899,633.525 392.443,637.139C401.156,638.671 409.922,639.086 418.74,638.385C422.75,645.732 427.518,652.639 432.966,658.994C429.183,666.991 426.463,675.334 424.806,684.024C427.638,686.749 430.581,689.357 433.627,691.84C442.054,689.147 450.009,685.441 457.492,680.722C464.456,685.364 471.888,689.265 479.665,692.359C480.032,701.198 481.501,709.85 484.072,718.315C487.846,719.412 491.663,720.353 495.515,721.135C501.725,714.835 507.047,707.857 511.479,700.201C519.803,701.075 528.197,701.075 536.521,700.201C540.953,707.857 546.275,714.835 552.485,721.135C556.337,720.353 560.154,719.412 563.928,718.315C566.499,709.85 567.968,701.198 568.335,692.359C576.112,689.265 583.544,685.364 590.508,680.722C597.991,685.441 605.946,689.147 614.373,691.84C617.419,689.357 620.362,686.749 623.194,684.024C621.537,675.334 618.817,666.991 615.034,658.994C620.482,652.639 625.25,645.732 629.26,638.385C638.078,639.086 646.844,638.671 655.557,637.139C657.101,633.525 658.495,629.848 659.736,626.119C654.231,619.194 647.945,613.071 640.879,607.748C642.75,599.59 643.761,591.258 643.897,582.889C652.032,579.411 659.6,574.97 666.603,569.564C666.291,565.647 665.817,561.743 665.183,557.864C657.09,554.292 648.678,551.791 639.948,550.361C637.813,542.268 634.837,534.42 631.068,526.947C636.654,520.088 641.292,512.638 644.981,504.597C642.883,501.273 640.65,498.037 638.286,494.897C629.459,495.495 620.849,497.189 612.454,499.981ZM524,487.464C575.593,487.464 617.479,529.351 617.479,580.943C617.479,632.536 575.593,674.423 524,674.423C472.407,674.423 430.521,632.536 430.521,580.943C430.521,529.351 472.407,487.464 524,487.464Z" style="fill:white;"/>
                </g>
            </g>
        </g>
    </g>
</svg>
